<?xml version="1.0" encoding="utf-8"?>
<!-- Generator: Adobe Illustrator 28.0.0, SVG Export Plug-In . SVG Version: 6.00 Build 0)  -->
<svg version="1.1" id="Layer_1" xmlns="http://www.w3.org/2000/svg" xmlns:xlink="http://www.w3.org/1999/xlink" x="0px" y="0px"
	 viewBox="0 0 370.097 127.217" enable-background="new 0 0 370.097 127.217" xml:space="preserve">
<g>
	<g>
		<path fill="#000000" d="M10.558,127.217H110.78c5.831,0,10.558-4.727,10.558-10.558V10.558C121.338,4.727,116.611,0,110.78,0
			H10.558C4.727,0,0,4.727,0,10.558v106.101C0,122.49,4.727,127.217,10.558,127.217z"/>
		<circle fill="#FFFFFF" cx="33.694" cy="33.727" r="23.115"/>
		<path fill="#FFFFFF" d="M55.976,80.979L35.731,60.734c-1.124-1.124-2.947-1.124-4.071,0L11.413,80.979
			c-0.526,0.523-0.71,1.173-0.71,1.789v29.256c0,2.485,2.015,4.5,4.5,4.5h36.981c2.486,0,4.502-2.016,4.502-4.502V82.851
			C56.686,82.197,56.521,81.525,55.976,80.979z"/>
		<path fill="#FFFFFF" d="M110.684,15.044c0-2.951-2.828-5.079-5.663-4.261l-37.116,10.7c-1.899,0.547-3.207,2.285-3.207,4.261
			l0.003,86.279c0,2.485,2.015,4.499,4.5,4.499h36.98c2.486,0,4.502-2.015,4.502-4.502L110.684,15.044z"/>
	</g>
	<g>
		<g>
			<path fill="#000000" d="M135.815,24.438c0-7.536,5.842-13.452,13.34-13.452c5.134,0,9.604,2.562,11.125,6.31
				c0.161,0.397-0.061,0.888-0.448,1.072l-4.207,2.006c-0.382,0.182-0.892,0.046-1.099-0.323c-0.977-1.749-2.997-2.848-5.372-2.848
				c-3.956,0-6.782,3.016-6.782,7.235c0,4.335,2.863,7.463,6.859,7.463c1.792,0,3.311-0.365,4.475-1.093
				c0.219-0.137,0.385-0.475,0.385-0.733l0-1.569c0-0.475-0.388-0.863-0.863-0.863h-3.663c-0.475,0-0.863-0.388-0.863-0.863v-3.361
				c0-0.475,0.388-0.863,0.863-0.863h10.032c0.475,0,0.863,0.388,0.863,0.863l0,9.009c0,0.166-0.079,0.411-0.18,0.542
				c-2.366,3.071-6.422,5.112-11.049,5.112C141.658,38.081,135.815,31.976,135.815,24.438z"/>
			<path fill="#000000" d="M175.768,22.555c1.509,0,2.715-1.131,2.715-2.526c0-1.432-1.206-2.524-2.715-2.524h-2.415
				c-0.477,0-0.863,0.386-0.863,0.863v3.323c0,0.477,0.386,0.863,0.863,0.863H175.768z M172.489,36.878
				c0,0.477-0.386,0.863-0.863,0.863h-4.679c-0.477,0-0.863-0.386-0.863-0.863V12.225c0-0.477,0.386-0.863,0.863-0.863h9.5
				c4.447,0,8.48,3.731,8.48,8.329c0,2.943-1.124,5.278-3.073,6.734c-0.368,0.275-0.498,0.782-0.254,1.171l5.515,8.824
				c0.359,0.575-0.054,1.321-0.732,1.321h-5.668c-0.309,0-0.595-0.165-0.749-0.434l-5.08-8.855
				c-0.154-0.268-0.439-0.434-0.749-0.434l-0.784,0.001c-0.477,0-0.863,0.386-0.863,0.863v7.261V36.878z"/>
			<path fill="#000000" d="M208.445,12.225v4.378c0,0.477-0.386,0.863-0.863,0.863h-8.449c-0.477,0-0.863,0.386-0.863,0.863v2.042
				c0,0.477,0.386,0.863,0.863,0.863h7.356c0.477,0,0.863,0.386,0.863,0.863v4.378c0,0.477-0.386,0.863-0.863,0.863h-7.356
				c-0.477,0-0.863,0.386-0.863,0.863v2.57c0,0.477,0.386,0.863,0.863,0.863h8.449c0.477,0,0.863,0.386,0.863,0.863v4.378
				c0,0.477-0.386,0.863-0.863,0.863h-14.855c-0.477,0-0.863-0.386-0.863-0.863V12.225c0-0.477,0.386-0.863,0.863-0.863h14.855
				C208.058,11.362,208.445,11.748,208.445,12.225z"/>
			<path fill="#000000" d="M236.613,37.741h-5.028c-0.329,0-0.692-0.252-0.808-0.559l-1.011-2.688
				c-0.116-0.308-0.479-0.559-0.808-0.559h-8.302c-0.329,0-0.692,0.252-0.808,0.559l-1.011,2.688
				c-0.116,0.308-0.479,0.559-0.808,0.559h-4.878c-0.698,0-1.06-0.531-0.803-1.181l9.755-24.653c0.119-0.3,0.48-0.546,0.803-0.546
				h3.915c0.322,0,0.683,0.245,0.802,0.545l9.791,24.653C237.674,37.209,237.313,37.741,236.613,37.741z M227.047,27.268
				l-1.399-3.738c-0.441-1.18-1.168-1.181-1.615-0.004l-1.419,3.738c-0.244,0.643,0.119,1.17,0.807,1.17h2.818
				C226.923,28.434,227.287,27.909,227.047,27.268z"/>
			<path fill="#000000" d="M244.862,36.878V18.33c0-0.475-0.388-0.863-0.863-0.863h-5.698c-0.475,0-0.863-0.388-0.863-0.863v-4.378
				c0-0.475,0.388-0.863,0.863-0.863h19.528c0.475,0,0.863,0.388,0.863,0.863v4.378c0,0.475-0.388,0.863-0.863,0.863h-5.698
				c-0.475,0-0.863,0.388-0.863,0.863v18.548c0,0.475-0.388,0.863-0.863,0.863h-4.679C245.251,37.741,244.862,37.353,244.862,36.878
				z"/>
			<g>
				<path fill="#000000" d="M278.473,11.362c0.475,0,0.863,0.388,0.863,0.863v4.378c0,0.475-0.388,0.863-0.863,0.863h-8.449
					c-0.475,0-0.863,0.388-0.863,0.863v2.042c0,0.475,0.388,0.863,0.863,0.863h7.356c0.475,0,0.863,0.388,0.863,0.863v4.378
					c0,0.475-0.388,0.863-0.863,0.863h-7.356c-0.475,0-0.863,0.388-0.863,0.863v2.57c0,0.475,0.388,0.863,0.863,0.863h8.449
					c0.475,0,0.863,0.388,0.863,0.863v4.378c0,0.475-0.388,0.863-0.863,0.863h-14.855c-0.475,0-0.863-0.388-0.863-0.863V12.225
					c0-0.475,0.388-0.863,0.863-0.863H278.473z"/>
			</g>
			<path fill="#000000" d="M294.699,22.555c1.509,0,2.715-1.131,2.715-2.526c0-1.432-1.206-2.524-2.715-2.524h-2.415
				c-0.477,0-0.863,0.386-0.863,0.863v3.323c0,0.477,0.386,0.863,0.863,0.863H294.699z M291.421,36.878
				c0,0.477-0.386,0.863-0.863,0.863h-4.679c-0.477,0-0.863-0.386-0.863-0.863V12.225c0-0.477,0.386-0.863,0.863-0.863h9.5
				c4.447,0,8.48,3.731,8.48,8.329c0,2.943-1.124,5.278-3.073,6.734c-0.368,0.275-0.498,0.782-0.254,1.171l5.515,8.824
				c0.359,0.575-0.054,1.321-0.732,1.321h-5.668c-0.309,0-0.595-0.165-0.749-0.434l-5.08-8.855
				c-0.154-0.268-0.439-0.434-0.749-0.434l-0.784,0.001c-0.477,0-0.863,0.386-0.863,0.863v7.261V36.878z"/>
		</g>
		<g>
			<path fill="#000000" d="M143.821,51.326l4.67,13.051c0.448,1.253,1.18,1.253,1.626-0.002l4.638-13.048
				c0.112-0.316,0.478-0.574,0.813-0.574h4.853c0.685,0,1.048,0.525,0.808,1.166l-9.227,24.653
				c-0.115,0.308-0.479,0.561-0.808,0.561h-3.891c-0.329,0-0.693-0.252-0.808-0.561l-9.227-24.653
				c-0.24-0.641,0.124-1.166,0.808-1.166h4.931C143.342,50.754,143.708,51.011,143.821,51.326z"/>
			<path fill="#000000" d="M194.281,51.124l7.743,11.126c0.864,1.242,1.572,1.02,1.572-0.493v-10.14
				c0-0.475,0.388-0.863,0.863-0.863h4.681c0.475,0,0.863,0.388,0.863,0.863V76.27c0,0.475-0.388,0.863-0.863,0.863h-3.965
				c-0.247,0-0.564-0.165-0.706-0.367l-7.82-11.119c-0.863-1.227-1.569-1.004-1.569,0.497V76.27c0,0.475-0.388,0.863-0.863,0.863
				h-4.679c-0.475,0-0.863-0.388-0.863-0.863V51.617c0-0.475,0.388-0.863,0.863-0.863h4.036
				C193.82,50.754,194.139,50.92,194.281,51.124z"/>
			<path fill="#000000" d="M228.01,77.509c-7.608,0-13.373-5.985-13.379-13.555c-0.006-7.511,6.02-13.651,13.531-13.576
				c5.071,0.05,9.436,2.6,10.937,6.312c0.16,0.396-0.061,0.884-0.446,1.068l-4.216,2.01c-0.382,0.182-0.892,0.046-1.099-0.323
				c-0.984-1.751-2.918-2.851-5.328-2.851c-4.033,0-6.821,3.129-6.821,7.349c0,4.222,2.788,7.349,6.821,7.349
				c2.612,0,4.6-1.221,5.513-3.16c0.19-0.405,0.712-0.566,1.118-0.379l4.27,1.969c0.389,0.179,0.617,0.666,0.464,1.066
				C237.855,74.765,233.267,77.509,228.01,77.509z"/>
			<path fill="#000000" d="M269.599,63.943c0,7.762-5.765,13.566-13.529,13.566c-7.725,0-13.529-5.804-13.529-13.566
				s5.804-13.566,13.529-13.566C263.834,50.377,269.599,56.181,269.599,63.943z M256.07,71.293c3.994,0,6.971-3.128,6.971-7.349
				c0-4.183-2.977-7.349-6.971-7.349c-3.994,0-6.971,3.166-6.971,7.349C249.099,68.165,252.076,71.293,256.07,71.293z"/>
			<path fill="#000000" d="M274.081,66.845V51.617c0-0.475,0.388-0.863,0.863-0.863h4.679c0.475,0,0.863,0.388,0.863,0.863v15.228
				c0,2.526,1.81,4.409,4.183,4.409c2.412,0,4.221-1.883,4.221-4.409V51.617c0-0.475,0.388-0.863,0.863-0.863h4.641
				c0.475,0,0.863,0.388,0.863,0.863v15.07c0,5.623-4.309,10.466-9.924,10.768C278.938,77.798,274.081,73.171,274.081,66.845z"/>
			<path fill="#000000" d="M305.712,51.326l4.67,13.051c0.448,1.253,1.18,1.253,1.626-0.002l4.638-13.048
				c0.112-0.316,0.478-0.574,0.813-0.574h4.853c0.685,0,1.048,0.525,0.808,1.166l-9.227,24.653
				c-0.115,0.308-0.479,0.561-0.808,0.561h-3.891c-0.329,0-0.693-0.252-0.808-0.561l-9.227-24.653
				c-0.24-0.641,0.124-1.166,0.808-1.166h4.931C305.233,50.754,305.599,51.011,305.712,51.326z"/>
			<g>
				<path fill="#000000" d="M342.698,50.754c0.475,0,0.863,0.388,0.863,0.863v4.378c0,0.475-0.388,0.863-0.863,0.863h-8.449
					c-0.475,0-0.863,0.388-0.863,0.863v2.042c0,0.475,0.388,0.863,0.863,0.863h7.356c0.475,0,0.863,0.388,0.863,0.863v4.378
					c0,0.475-0.388,0.863-0.863,0.863h-7.356c-0.475,0-0.863,0.388-0.863,0.863v2.57c0,0.475,0.388,0.863,0.863,0.863h8.449
					c0.475,0,0.863,0.388,0.863,0.863v4.378c0,0.475-0.388,0.863-0.863,0.863h-14.855c-0.475,0-0.863-0.388-0.863-0.863V51.618
					c0-0.475,0.388-0.863,0.863-0.863H342.698z"/>
			</g>
			<path fill="#000000" d="M358.617,61.946c1.509,0,2.715-1.131,2.715-2.526c0-1.432-1.206-2.524-2.715-2.524h-2.415
				c-0.477,0-0.863,0.386-0.863,0.863v3.323c0,0.477,0.386,0.863,0.863,0.863H358.617z M355.339,76.269
				c0,0.477-0.386,0.863-0.863,0.863h-4.679c-0.477,0-0.863-0.386-0.863-0.863V51.616c0-0.477,0.386-0.863,0.863-0.863h9.5
				c4.447,0,8.48,3.731,8.48,8.329c0,2.943-1.124,5.278-3.073,6.734c-0.368,0.275-0.498,0.782-0.254,1.171l5.515,8.824
				c0.359,0.575-0.054,1.321-0.732,1.321h-5.668c-0.309,0-0.595-0.165-0.749-0.434l-5.08-8.855
				c-0.154-0.268-0.439-0.434-0.749-0.434l-0.784,0.001c-0.477,0-0.863,0.386-0.863,0.863v7.261V76.269z"/>
			<path fill="#000000" d="M183.999,77.134h-5.028c-0.329,0-0.692-0.252-0.808-0.559l-1.011-2.688
				c-0.116-0.308-0.479-0.559-0.808-0.559h-8.302c-0.329,0-0.692,0.252-0.808,0.559l-1.011,2.688
				c-0.116,0.308-0.479,0.559-0.808,0.559h-4.878c-0.698,0-1.06-0.531-0.803-1.181L169.49,51.3c0.119-0.3,0.48-0.546,0.803-0.546
				h3.915c0.322,0,0.683,0.245,0.802,0.545l9.791,24.653C185.059,76.602,184.698,77.134,183.999,77.134z M174.432,66.66
				l-1.399-3.738c-0.441-1.18-1.168-1.181-1.615-0.004l-1.419,3.738c-0.244,0.643,0.119,1.17,0.807,1.17h2.818
				C174.309,67.826,174.672,67.301,174.432,66.66z"/>
		</g>
		<g>
			<path fill="#000000" d="M221.317,91.009v18.548c0,0.475,0.388,0.863,0.863,0.863h9.956c0.475,0,0.863,0.388,0.863,0.863v4.378
				c0,0.475-0.388,0.863-0.863,0.863h-16.362c-0.475,0-0.863-0.388-0.863-0.863V91.009c0-0.475,0.388-0.863,0.863-0.863h4.679
				C220.929,90.145,221.317,90.534,221.317,91.009z"/>
			<path fill="#000000" d="M282.895,103.335c0,7.762-5.765,13.566-13.529,13.566c-7.725,0-13.529-5.804-13.529-13.566
				s5.804-13.566,13.529-13.566C277.13,89.769,282.895,95.573,282.895,103.335z M269.366,110.684c3.994,0,6.971-3.128,6.971-7.349
				c0-4.183-2.977-7.349-6.971-7.349c-3.994,0-6.971,3.166-6.971,7.349C262.395,107.557,265.372,110.684,269.366,110.684z"/>
			<path fill="#000000" d="M331.471,94.572l-2.681,3.676c-0.302,0.415-0.857,0.465-1.257,0.143
				c-1.928-1.549-4.154-2.442-5.963-2.442c-1.507,0-2.487,0.565-2.487,1.545c0,3.73,13.076,1.356,13.076,11.004
				c0,4.183-3.542,8.403-9.91,8.403c-3.845,0-8.383-2.013-10.772-4.744c-0.266-0.304-0.241-0.819,0.026-1.122l2.962-3.372
				c0.329-0.375,0.899-0.404,1.249-0.049c1.789,1.811,3.769,3.107,6.534,3.107c2.034,0,3.39-0.791,3.39-2.148
				c0-3.807-12.962-1.131-12.962-10.589c0-4.636,3.88-8.216,9.421-8.216c3.176,0,7.095,1.551,9.304,3.697
				C331.687,93.743,331.705,94.251,331.471,94.572z"/>
			<path fill="#000000" d="M150.022,101.34c1.509,0,2.715-1.131,2.715-2.526c0-1.432-1.206-2.524-2.715-2.524h-2.415
				c-0.477,0-0.863,0.386-0.863,0.863v3.323c0,0.477,0.386,0.863,0.863,0.863H150.022z M146.744,115.663
				c0,0.477-0.386,0.863-0.863,0.863h-4.679c-0.477,0-0.863-0.386-0.863-0.863V91.01c0-0.477,0.386-0.863,0.863-0.863h9.5
				c4.447,0,8.48,3.731,8.48,8.329c0,2.943-1.124,5.278-3.073,6.734c-0.368,0.275-0.498,0.782-0.254,1.171l5.515,8.824
				c0.359,0.575-0.054,1.321-0.732,1.321h-5.668c-0.309,0-0.595-0.165-0.749-0.434l-5.08-8.855
				c-0.154-0.268-0.439-0.434-0.749-0.434l-0.784,0.001c-0.477,0-0.863,0.386-0.863,0.863v7.261V115.663z"/>
			<g>
				<path fill="#000000" d="M181.48,90.144c0.475,0,0.863,0.388,0.863,0.863v4.378c0,0.475-0.388,0.863-0.863,0.863h-8.449
					c-0.475,0-0.863,0.388-0.863,0.863v2.042c0,0.475,0.388,0.863,0.863,0.863h7.356c0.475,0,0.863,0.388,0.863,0.863v4.378
					c0,0.475-0.388,0.863-0.863,0.863h-7.356c-0.475,0-0.863,0.388-0.863,0.863v2.57c0,0.475,0.388,0.863,0.863,0.863h8.449
					c0.475,0,0.863,0.388,0.863,0.863v4.378c0,0.475-0.388,0.863-0.863,0.863h-14.855c-0.475,0-0.863-0.388-0.863-0.863V91.007
					c0-0.475,0.388-0.863,0.863-0.863H181.48z"/>
			</g>
			<path fill="#000000" d="M210.238,116.523h-5.028c-0.329,0-0.692-0.252-0.808-0.559l-1.011-2.688
				c-0.116-0.308-0.479-0.559-0.808-0.559h-8.302c-0.329,0-0.692,0.252-0.808,0.559l-1.011,2.688
				c-0.116,0.308-0.479,0.559-0.808,0.559h-4.878c-0.698,0-1.06-0.531-0.803-1.181l9.755-24.653c0.119-0.3,0.48-0.546,0.803-0.546
				h3.915c0.322,0,0.683,0.245,0.802,0.545l9.791,24.653C211.298,115.992,210.937,116.523,210.238,116.523z M200.671,106.05
				l-1.399-3.738c-0.441-1.18-1.168-1.181-1.615-0.004l-1.419,3.738c-0.244,0.643,0.119,1.17,0.807,1.17h2.818
				C200.548,107.216,200.911,106.691,200.671,106.05z"/>
			<path fill="#000000" d="M239.449,115.662V97.114c0-0.475-0.388-0.863-0.863-0.863h-5.698c-0.475,0-0.863-0.388-0.863-0.863
				v-4.378c0-0.475,0.388-0.863,0.863-0.863h19.528c0.475,0,0.863,0.388,0.863,0.863v4.378c0,0.475-0.388,0.863-0.863,0.863h-5.698
				c-0.475,0-0.863,0.388-0.863,0.863v18.548c0,0.475-0.388,0.863-0.863,0.863h-4.679
				C239.837,116.525,239.449,116.136,239.449,115.662z"/>
			<path fill="#000000" d="M297.228,101.339c1.509,0,2.715-1.131,2.715-2.526c0-1.432-1.206-2.524-2.715-2.524h-2.415
				c-0.477,0-0.863,0.386-0.863,0.863v3.323c0,0.477,0.386,0.863,0.863,0.863H297.228z M293.949,115.663
				c0,0.477-0.386,0.863-0.863,0.863h-4.679c-0.477,0-0.863-0.386-0.863-0.863V91.01c0-0.477,0.386-0.863,0.863-0.863h9.5
				c4.447,0,8.48,3.731,8.48,8.329c0,2.943-1.124,5.278-3.073,6.734c-0.368,0.275-0.498,0.782-0.254,1.171l5.515,8.824
				c0.359,0.575-0.054,1.321-0.732,1.321h-5.668c-0.309,0-0.595-0.165-0.749-0.434l-5.08-8.855c-0.154-0.268-0.44-0.434-0.749-0.434
				l-0.784,0.001c-0.477,0-0.863,0.386-0.863,0.863v7.261V115.663z"/>
		</g>
		<g>
			<path fill="#000000" d="M335.876,94.18c0-2.43,1.989-4.417,4.407-4.417c2.442,0,4.429,1.988,4.429,4.417
				c0,2.431-1.988,4.419-4.429,4.419C337.865,98.598,335.876,96.611,335.876,94.18z M340.294,97.849
				c2.013,0,3.645-1.656,3.645-3.669c0-2.012-1.632-3.669-3.645-3.669c-2.001,0-3.633,1.658-3.633,3.669
				C336.661,96.193,338.293,97.849,340.294,97.849z M340.342,93.78c0.273,0,0.492-0.205,0.492-0.457
				c0-0.259-0.218-0.457-0.492-0.457h-0.437c-0.086,0-0.156,0.07-0.156,0.156v0.602c0,0.086,0.07,0.156,0.156,0.156H340.342z
				 M339.748,96.374c0,0.086-0.07,0.156-0.156,0.156h-0.847c-0.086,0-0.156-0.07-0.156-0.156V91.91c0-0.086,0.07-0.156,0.156-0.156
				h1.72c0.805,0,1.536,0.676,1.536,1.508c0,0.533-0.204,0.956-0.556,1.219c-0.067,0.05-0.09,0.142-0.046,0.212l0.999,1.598
				c0.065,0.104-0.01,0.239-0.133,0.239h-1.026c-0.056,0-0.108-0.03-0.136-0.079l-0.92-1.604c-0.028-0.049-0.08-0.079-0.136-0.079
				l-0.142,0c-0.086,0-0.156,0.07-0.156,0.156v1.315V96.374z"/>
		</g>
	</g>
</g>
</svg>
