<?xml version="1.0" encoding="UTF-8"?>
<svg id="Layer_1" xmlns="http://www.w3.org/2000/svg" version="1.1" viewBox="0 0 497.49 63.98">
  <!-- Generator: Adobe Illustrator 29.6.1, SVG Export Plug-In . SVG Version: 2.1.1 Build 9)  -->
  <defs>
    <style>
      .st0 {
        fill: #fff;
      }

      .st1 {
        fill: #012169;
      }
    </style>
  </defs>
  <g>
    <polygon class="st1" points="150.44 17.13 144.26 17.13 144.26 46.85 165.83 46.85 165.83 41.31 150.44 41.31 150.44 17.13"/>
    <polygon class="st1" points="222.66 32.67 215.49 17.17 214.74 17.17 207.57 32.62 202.06 17.17 195.49 17.17 206.38 46.69 206.45 46.89 207.37 46.89 215.13 30.32 222.81 46.85 223.77 46.85 234.86 17.17 228.28 17.17 222.66 32.67"/>
    <polygon class="st1" points="237.56 46.85 259.6 46.85 259.6 41.23 243.73 41.23 243.73 35 257.81 35 257.81 29.34 243.73 29.34 243.73 22.67 259.6 22.67 259.6 17.13 237.56 17.13 237.56 46.85"/>
    <polygon class="st1" points="270.76 17.13 264.59 17.13 264.59 46.85 286.15 46.85 286.15 41.31 270.76 41.31 270.76 17.13"/>
    <polygon class="st1" points="295.13 17.13 288.95 17.13 288.95 46.85 310.52 46.85 310.52 41.31 295.13 41.31 295.13 17.13"/>
    <path class="st1" d="M342.71,25.65c0,.39-.07.8-.2,1.2-.13.4-.33.77-.59,1.09-.25.31-.57.57-.94.76-.37.19-.81.29-1.31.29h-6.54v-6.31h6.94c.35,0,.68.08.99.25.32.17.61.39.85.65.24.27.44.59.58.95.14.36.22.74.22,1.13M343.9,37.68c0,.44-.09.87-.26,1.3-.17.43-.41.84-.71,1.19-.29.35-.64.64-1.02.84-.38.2-.79.3-1.21.3h-7.57v-6.79h6.98c1.19,0,2.13.31,2.8.92.67.61.99,1.34.99,2.24M348.09,33.13c-.58-.63-1.24-1.14-1.98-1.51-.28-.14-.56-.26-.84-.36.23-.1.44-.21.66-.35.61-.4,1.14-.9,1.57-1.49.43-.58.77-1.22,1.02-1.91.25-.69.38-1.36.38-1.98,0-1.68-.24-3.08-.7-4.17-.47-1.09-1.12-1.97-1.92-2.59-.8-.62-1.75-1.06-2.83-1.29-1.05-.23-2.18-.35-3.36-.35h-13.11v29.72h13.74c1.27,0,2.48-.15,3.6-.45,1.14-.3,2.15-.81,3-1.51.85-.7,1.54-1.63,2.03-2.77.49-1.13.74-2.53.74-4.15,0-.94-.19-1.84-.56-2.66-.37-.82-.85-1.55-1.42-2.18"/>
    <path class="st1" d="M369.98,36.82h-7.36l3.7-7.78,3.66,7.78ZM365.86,17.17l-15.18,29.68h6.73l2.23-4.57h13.34l2.27,4.57h6.73l-15.18-29.68h-.93Z"/>
    <polygon class="st1" points="404.25 34.36 385.62 17.25 385.54 17.17 384.52 17.17 384.52 46.85 390.69 46.85 390.69 29.93 409.4 46.85 410.42 46.85 410.42 17.17 404.25 17.17 404.25 34.36"/>
    <polygon class="st1" points="441.23 17.17 433.62 17.17 422.49 31.35 422.49 17.13 416.32 17.13 416.32 46.85 422.49 46.85 422.49 34.08 434.27 46.85 442.45 46.85 429.03 32.49 441.23 17.17"/>
    <polygon class="st1" points="445.11 46.85 467.15 46.85 467.15 41.23 451.28 41.23 451.28 35 465.36 35 465.36 29.34 451.28 29.34 451.28 22.67 467.15 22.67 467.15 17.13 445.11 17.13 445.11 46.85"/>
    <path class="st1" d="M488.46,30.92c-.39.38-.84.66-1.34.85-.51.19-1,.28-1.46.28h-7.35v-9.38h7.35c.91,0,1.65.17,2.18.51.54.34.96.77,1.25,1.25.3.5.5,1.02.6,1.57.1.57.15,1.06.15,1.46,0,.77-.13,1.45-.39,2.02-.26.57-.59,1.06-.99,1.44M478.31,37.58h5.05c1.08,1.55,2.17,3.09,3.24,4.57,1.11,1.54,2.26,3.08,3.41,4.58l.09.12h7.38l-.35-.48c-2.3-3.17-4.66-6.35-7.02-9.47,1.71-.75,3.12-1.92,4.18-3.5,1.13-1.69,1.7-3.68,1.7-5.94,0-1.49-.26-2.88-.76-4.15-.5-1.26-1.22-2.37-2.12-3.28-.9-.91-2-1.63-3.27-2.14-1.27-.5-2.68-.76-4.2-.76h-13.53v29.72h6.17v-9.27Z"/>
    <path class="st1" d="M104.91,21.3c-.94-.96-2-1.79-3.14-2.47-1.14-.69-2.4-1.23-3.73-1.6-1.33-.38-2.73-.57-4.16-.57-2.1,0-4.11.41-5.97,1.22-1.86.81-3.5,1.92-4.89,3.3-1.39,1.39-2.5,3.03-3.3,4.89-.81,1.86-1.22,3.87-1.22,5.97s.41,4.11,1.22,5.97c.81,1.86,1.92,3.5,3.3,4.89,1.39,1.39,3.03,2.5,4.89,3.31,1.86.81,3.87,1.22,5.97,1.22,1.43,0,2.83-.19,4.16-.57,1.33-.38,2.59-.92,3.73-1.6,1.14-.69,2.2-1.52,3.14-2.47.94-.96,1.75-2.04,2.4-3.23l.16-.3-5.75-2.33-.14.21c-.41.62-.9,1.21-1.45,1.76-.55.55-1.17,1.04-1.83,1.45-.67.41-1.38.73-2.12.96-.74.23-1.51.34-2.3.34-1.27,0-2.48-.26-3.59-.79-1.11-.53-2.09-1.23-2.91-2.1-.82-.87-1.48-1.9-1.97-3.05-.49-1.15-.73-2.38-.73-3.66s.25-2.48.73-3.64c.49-1.17,1.15-2.2,1.97-3.07.82-.87,1.8-1.58,2.91-2.1,1.11-.52,2.32-.79,3.59-.79.79,0,1.56.12,2.3.34.74.23,1.45.55,2.12.96.67.41,1.28.89,1.84,1.43.55.54,1.04,1.13,1.45,1.74l.14.21,5.76-2.33-.17-.3c-.65-1.16-1.45-2.23-2.39-3.19"/>
    <path class="st1" d="M133.77,31.99c0,1.28-.25,2.51-.73,3.66-.49,1.15-1.16,2.19-1.99,3.07-.83.88-1.82,1.6-2.93,2.12-1.1.52-2.31.79-3.58.79s-2.48-.26-3.58-.79c-1.11-.52-2.09-1.24-2.93-2.12-.83-.88-1.5-1.92-1.99-3.07-.48-1.15-.73-2.38-.73-3.66s.25-2.48.73-3.64c.49-1.17,1.15-2.2,1.98-3.07.83-.87,1.81-1.58,2.93-2.1,1.1-.52,2.31-.79,3.58-.79s2.48.26,3.58.79c1.11.53,2.1,1.23,2.93,2.1.83.87,1.5,1.9,1.98,3.07.49,1.16.73,2.39.73,3.64M135.42,21.1c-1.39-1.39-3.03-2.5-4.89-3.3-1.86-.81-3.88-1.22-6.01-1.22s-4.11.41-5.97,1.22c-1.86.81-3.5,1.92-4.89,3.3-1.39,1.39-2.5,3.04-3.3,4.91-.81,1.87-1.22,3.89-1.22,5.99s.41,4.15,1.22,6.01c.81,1.86,1.92,3.5,3.3,4.89,1.38,1.39,3.03,2.5,4.89,3.31,1.86.81,3.87,1.22,5.97,1.22s4.15-.41,6.01-1.22c1.86-.81,3.5-1.92,4.89-3.31,1.39-1.39,2.5-3.03,3.3-4.89.81-1.86,1.22-3.88,1.22-6.01s-.41-4.11-1.22-5.99c-.81-1.87-1.92-3.52-3.3-4.91"/>
    <path class="st1" d="M189.11,32.03c0,1.96-.27,3.57-.81,4.77-.54,1.2-1.22,2.14-2.04,2.81-.82.67-1.75,1.12-2.76,1.35-1.03.23-2.07.35-3.08.35h-5.62v-18.56h5.62c.98,0,2,.12,3.04.35,1.01.23,1.95.68,2.78,1.33.83.66,1.52,1.6,2.06,2.81.54,1.21.81,2.83.81,4.79M190.85,20.87c-2.72-2.48-6.24-3.74-10.45-3.74h-11.78v29.72h11.78c2.09,0,4.04-.31,5.8-.93,1.77-.62,3.33-1.55,4.65-2.77,1.46-1.32,2.57-2.95,3.31-4.83.74-1.87,1.11-4,1.11-6.34s-.37-4.42-1.11-6.3c-.74-1.88-1.86-3.5-3.31-4.83"/>
  </g>
  <g>
    <rect class="st1" width="63.98" height="63.98"/>
    <path class="st0" d="M3.42,60.57h57.15V3.42H3.42v57.15ZM61.22,61.22H2.77V2.77h58.45v58.45Z"/>
    <polygon class="st0" points="39.83 21.77 44.32 18.77 48.81 21.77 47.35 16.57 51.58 13.23 46.19 13.02 44.32 7.96 42.45 13.02 37.06 13.23 41.3 16.57 39.83 21.77"/>
    <path class="st0" d="M47.82,40.97c-.75-1.02-1.7-1.81-2.84-2.37.83-.59,1.51-1.33,2.03-2.22.76-1.3,1.15-2.73,1.15-4.25,0-.95-.17-1.91-.5-2.84-.33-.94-.81-1.78-1.41-2.52-.61-.74-1.37-1.36-2.24-1.82-.89-.48-1.9-.72-2.99-.72h-14.77v13.35c-1.46.08-2.84-.2-4.06-.82-.63-.32-1.2-.73-1.74-1.18-.41-.35-.81-.71-1.16-1.13-.82-.97-1.48-2.11-1.94-3.37-.46-1.26-.7-2.62-.7-4.02,0-1.26.2-2.53.59-3.77.38-1.23.97-2.36,1.74-3.34.76-.97,1.72-1.77,2.84-2.38,1.62-.87,3.69-1.15,5.91-.67.68.14,1.35.39,2,.73.64.34,1.25.8,1.79,1.35.54.56,1.02,1.26,1.41,2.09l.33.7,3.98-2.58-.26-.53c-.93-1.94-2.37-3.54-4.28-4.75-1.91-1.21-4.22-1.82-6.87-1.82-2.22,0-4.24.44-6.01,1.31-1.75.86-3.25,2.01-4.47,3.42-1.21,1.4-2.14,3.01-2.76,4.77-.62,1.76-.94,3.54-.94,5.31,0,1.88.34,3.75,1.02,5.56.68,1.81,1.64,3.45,2.88,4.88,1.23,1.43,2.72,2.6,4.41,3.49.15.08.32.14.48.21.1.05.2.09.3.14.3.13.61.25.92.36.21.07.42.14.63.2.32.09.64.17.97.23.22.04.44.08.66.11.56.08,1.13.11,1.71.11.2,0,.41,0,.61-.01.95-.05,1.92-.2,2.91-.45,1.19-.3,2.34-.76,3.41-1.34.4-.22.79-.46,1.17-.72.25-.17.49-.35.73-.54.35-.28.69-.59,1.01-.91.22-.22.42-.44.62-.68.19-.24.38-.48.55-.73.34-.51.63-1.05.88-1.62l.17-.45-.42-.38h0s-3.05-2.81-3.05-2.81c0,0-.31.72-.48,1.05-.17.33-.53.91-.78,1.24-.36.48-.66.84-1.06,1.24-.22.22-.46.42-.7.61v-6.99h8.59c.49,0,.94.1,1.37.3.43.2.79.47,1.08.82.31.36.55.81.74,1.31.19.51.28,1.06.28,1.65,0,.55-.1,1.08-.29,1.57-.2.49-.46.93-.79,1.29-.33.36-.71.65-1.17.86-.43.21-.93.31-1.46.31h-1.29c-.15.26-.3.52-.47.77-.39.58-.84,1.12-1.33,1.61-.65.65-1.37,1.23-2.13,1.75-.13.08-.07.13,0,.13h6.35c.53,0,1.02.11,1.46.33.45.22.84.53,1.17.91.33.39.6.85.8,1.38.2.52.29,1.07.29,1.62s-.1,1.08-.31,1.58c-.2.5-.49.94-.86,1.32-.37.38-.8.69-1.29.92-.46.22-.98.33-1.54.33h-9.19v-6.94c-.55.21-1.12.39-1.69.53-1,.26-2.05.41-3.18.46-.02,0-.04,0-.07,0v10.4h14.13c1.21,0,2.37-.19,3.43-.56,1.07-.37,2.03-.91,2.85-1.6.83-.7,1.49-1.55,1.97-2.54.48-.99.73-2.1.73-3.29,0-1.89-.52-3.57-1.55-4.97"/>
  </g>
  <path class="st0" d="M48.94,53.96c-.57,0-.98-.43-.98-1,0-.6.45-1,.98-1s.98.4.98,1-.45,1-.98,1ZM48.94,52.14c-.43,0-.77.34-.77.82,0,.45.29.82.77.82.43,0,.76-.34.76-.82s-.34-.82-.76-.82ZM48.75,53.53h-.18v-1.1h.42c.27,0,.4.09.4.32,0,.2-.12.28-.29.3l.31.48h-.21l-.29-.47h-.17v.47ZM48.95,52.9c.14,0,.26-.01.26-.17,0-.13-.13-.15-.24-.15h-.22v.32h.2Z"/>
</svg>