<svg width="180" height="180" viewBox="0 0 180 180" fill="none" xmlns="http://www.w3.org/2000/svg">
<rect width="180" height="180" fill="white"/>
<path d="M96.4637 92.7888C97.3114 90.6646 97.7959 88.0683 97.7959 85.118H103.125C103.125 89.6025 102.156 93.4969 100.218 96.5652C101.066 97.3913 101.913 97.8634 102.761 98.2174C103.609 98.5714 104.578 98.6894 105.668 98.6894H107V103.41H105.91C104.82 103.41 103.851 103.41 103.125 103.292C102.277 103.174 101.55 103.056 100.824 102.82C100.097 102.584 99.4914 102.23 98.8858 101.876C98.2803 101.522 97.6747 100.932 96.9481 100.342C93.9204 102.82 90.045 104 85.3218 104C81.083 104 77.9342 103.056 75.5121 101.168C73.09 99.2795 72 96.6832 72 93.2609C72 90.9006 72.6055 88.7764 73.9377 87.1242C75.2699 85.472 77.3287 83.8199 80.1142 82.4037C78.782 80.9876 77.9342 79.5714 77.3287 78.2733C76.7232 76.9752 76.481 75.677 76.481 74.3789C76.481 71.9006 77.3287 69.8944 79.1453 68.3602C80.8408 66.8261 83.263 66 86.0484 66C88.8339 66 91.2561 66.7081 92.9516 68.2422C94.6471 69.7764 95.6159 71.7826 95.6159 74.2609C95.6159 76.1491 95.0104 77.8012 93.9204 79.2174C92.7093 80.6335 90.8927 82.1677 88.2284 83.5838L96.4637 92.7888ZM83.263 85.7081C81.4464 86.6522 80.1142 87.5963 79.2664 88.6584C78.4187 89.7205 78.0554 91.0186 78.0554 92.4348C78.0554 94.559 78.782 96.2112 80.3564 97.3913C81.9308 98.5714 83.9896 99.1615 86.5329 99.1615C89.3183 99.1615 91.4983 98.4534 93.436 96.9193L83.263 85.7081ZM85.2007 80.0435C87.0173 79.0994 88.3495 78.1553 89.0761 77.3292C89.8028 76.5031 90.1661 75.441 90.1661 74.1429C90.1661 72.8447 89.8028 71.7826 89.0761 71.0745C88.3495 70.3665 87.3806 70.0124 86.0484 70.0124C84.7163 70.0124 83.7474 70.3665 83.0208 70.9565C82.2941 71.5466 81.9308 72.4907 81.9308 73.6708C81.9308 74.4969 82.173 75.441 82.6574 76.3851C83.1419 77.3292 83.9896 78.7453 85.2007 80.0435Z" fill="#E60000"/>
<path d="M105.879 68H113.229L125.892 105.425L138.555 68H145.452L129.849 113H121.595L105.879 68Z" fill="#303030"/>
<path d="M113.229 68H105.879L121.595 113H129.849L145.452 68H138.555L125.892 105.425L113.229 68Z" fill="#303030"/>
<path d="M65.4306 68H34C34 68 34 113 34.1139 113H66V106.879H40.8327V92.8237H61.7865V86.7028H40.8327V74.1209H65.4306V68Z" fill="#303030"/>
</svg>
